<svg id="Layer_1" data-name="Layer 1" xmlns="http://www.w3.org/2000/svg" viewBox="0 0 512 512"><defs><style>.cls-1{fill:#fff;}</style></defs><title>find_job-01</title><path d="M260.21,10.72V501.28a14.76,14.76,0,0,0,11.46-5.44s138.4-169.31,138.4-169.31a192.69,192.69,0,0,0,43.6-122.35C453.67,97.34,367.05,10.72,260.21,10.72Z"/><path d="M260.21,10.72c-106.85,0-193.46,86.62-193.46,193.46a192.59,192.59,0,0,0,43.61,122.35S248.74,495.84,248.74,495.84a14.78,14.78,0,0,0,11.47,5.44,11.9,11.9,0,0,0,9.71-5.44L387.13,326.53c23.07-33.33,36.93-75.93,36.93-122.35,0-106.84-73.36-193.46-163.85-193.46Z"/><circle class="cls-1" cx="260.21" cy="204.18" r="163.85"/><path d="M107.92,205c-.37-84.22,67.7-152.78,152-153.09,83.85-.3,152.5,67.84,152.65,151.84.15,82.54-64.9,152.62-152.23,152.68C173.16,356.5,108.52,286.72,107.92,205Zm152.2,73v.12q40.77,0,81.56,0c8.47,0,11.52-2.86,11.53-10.79q0-54.65-.08-109.3c0-7.75-2.79-10.47-10.51-10.5-11.6,0-23.2-.13-34.79.19-4.19.12-5.2-1.26-5.06-5.25.29-8.87.15-17.76.07-26.64-.07-7.15-3.17-10.42-10.23-10.45q-32.36-.13-64.71,0c-7.16,0-10.15,3.23-10.2,10.42-.06,8.52-.28,17,.09,25.55.2,4.78-.91,6.61-6.13,6.41-10.86-.44-21.75-.16-32.62-.13-9.25,0-11.5,2.3-11.52,11.58q-.12,53-.21,106c0,10.24,2.45,12.76,12.87,12.77Q220.14,278,260.12,278Z"/><rect x="231.47" y="116.79" width="57.55" height="31.3" rx="2.81" ry="2.81"/></svg>