<svg id="Layer_1" data-name="Layer 1" xmlns="http://www.w3.org/2000/svg" viewBox="0 0 512 512"><title>find_job</title><path d="M133.41,200A120.56,120.56,0,0,1,253.58,79c66.3-.24,120.58,53.63,120.69,120.05.12,65.26-51.31,120.66-120.35,120.71S133.89,264.63,133.41,200Zm120.33,57.71v.09q32.24,0,64.49,0c6.69,0,9.1-2.27,9.11-8.53q0-43.21-.06-86.42c0-6.13-2.21-8.28-8.31-8.3-9.17,0-18.35-.1-27.51.15-3.31.09-4.11-1-4-4.15.23-7,.12-14,.05-21.06-.05-5.66-2.5-8.24-8.08-8.27q-25.59-.1-51.17,0c-5.65,0-8,2.55-8.06,8.24,0,6.73-.21,13.48.07,20.2.16,3.78-.72,5.23-4.84,5.06-8.59-.34-17.2-.12-25.79-.09-7.31,0-9.1,1.81-9.11,9.15q-.09,41.92-.16,83.83c0,8.11,1.94,10.1,10.17,10.11Q222.15,257.77,253.74,257.74Z"/><path d="M388.81,120.59c-27.67-47.75-76.81-76.92-131.46-78q-3.51-.06-7,0c-54.65,1.12-103.79,30.29-131.46,78a158.72,158.72,0,0,0-2.07,156.82L229.85,484.33c.05.09.1.19.16.28a27.48,27.48,0,0,0,47.67,0l.15-.28L390.88,277.41a158.72,158.72,0,0,0-2.07-156.82ZM247,280.5c-78.49,19.45-93.71-32.26-92.5-118,.66-46.85,60.85-50.54,111-58,56.79-8.44,120,84.78,90.5,142.5C339.91,278.48,281.31,272,247,280.5Z"/><rect x="231.11" y="130" width="45.5" height="24.75" rx="2.81" ry="2.81"/></svg>