<svg id="Layer_1" data-name="Layer 1" xmlns="http://www.w3.org/2000/svg" viewBox="0 0 750 750"><defs><style>.cls-1{fill:#030303;}</style></defs><title>findme</title><path class="cls-1" d="M374.92,36.72C561.59,36.65,712.08,189,713,378.89,713.86,559.72,558.55,713,374.53,713c-188,0-337.91-152.59-337.81-343.83C36.82,189,191.65,36.79,374.92,36.72Zm.41,51.89C218.93,88.53,89,216.14,88.61,370.14,88.24,532.5,215.07,661.47,375.09,661.46c156.65,0,286.05-128.62,286.28-284.51C661.6,217.71,533.62,88.69,375.33,88.61Z"/><path class="cls-1" d="M526,229.89C477.13,346,428.22,462.23,377.56,582.58a1.67,1.67,0,0,1-3.2-.41c-8.24-58.81-16.25-113-23-167.43-1.45-11.74-5.17-14.6-16.54-16-54.05-6.79-107.94-14.83-166.91-23.2a1.67,1.67,0,0,1-.41-3.19L520,223.87Z"/><path class="cls-1" d="M528,222c1.78,1.66-4.11,14-6,16s-1-5.57-2.75-7.23S510.05,230,512,228,526.22,220.34,528,222Z"/></svg>