<svg id="Capa_1" enable-background="new 0 0 497 497" height="512" viewBox="0 0 497 497" width="512" xmlns="http://www.w3.org/2000/svg"><g><path d="m248.5 0v497c4.684 0 8.865-2.149 11.616-5.513.004 0 140.214-171.526 140.214-171.526 27.6-33.777 44.17-76.932 44.17-123.961 0-108.248-87.752-196-196-196z" fill="#1b74d6"/><path d="m248.5 0c-108.248 0-196 87.752-196 196 0 47.029 16.57 90.184 44.182 123.961-.011 0 140.198 171.526 140.198 171.526 2.755 3.364 6.935 5.513 11.62 5.513 3.967 0 7.508-2.149 9.838-5.513.003 0 118.752-171.526 118.752-171.526 23.376-33.777 37.41-76.932 37.41-123.961 0-108.248-74.321-196-166-196z" fill="#1e8aff"/><circle cx="248.5" cy="196" fill="#ffd17e" r="166"/><circle cx="248.5" cy="196" fill="#fffbf3" r="136"/><path d="m286.335 152.917h-15v-30h-45.667v30h-15v-37.5c0-4.143 3.357-7.5 7.5-7.5h60.667c4.143 0 7.5 3.357 7.5 7.5z" fill="#3d5168"/><path d="m256.335 188.5 45 73.083h22.5c4.142 0 7.5-3.358 7.5-7.5l-.001-22.5z" fill="#3d5168"/><path d="m165.668 231.583-.002 22.499c0 4.142 3.358 7.501 7.5 7.501h128.169v-75z" fill="#57697d"/><path d="m331.335 152.917v78.667h-30l-45-43.083 45-43.083h22.5c4.142-.001 7.5 3.357 7.5 7.499z" fill="#57697d"/><path d="m301.335 145.417v86.167h-135.67v-78.667c0-4.142 3.358-7.5 7.5-7.5z" fill="#728192"/></g></svg>